<?xml version="1.0" encoding="UTF-8" standalone="no"?>
<svg
   width="16"
   height="16"
   version="1.1"
   id="svg8"
   sodipodi:docname="top-right-arrow-symbolic.svg"
   inkscape:version="1.1 (1:1.1+202105261518+ce6663b3b7)"
   xmlns:inkscape="http://www.inkscape.org/namespaces/inkscape"
   xmlns:sodipodi="http://sodipodi.sourceforge.net/DTD/sodipodi-0.dtd"
   xmlns="http://www.w3.org/2000/svg"
   xmlns:svg="http://www.w3.org/2000/svg">
  <defs
     id="defs12" />
  <sodipodi:namedview
     id="namedview10"
     pagecolor="#ffffff"
     bordercolor="#666666"
     borderopacity="1.0"
     inkscape:pageshadow="2"
     inkscape:pageopacity="0.0"
     inkscape:pagecheckerboard="0"
     showgrid="false"
     inkscape:zoom="26.1875"
     inkscape:cx="9.3556086"
     inkscape:cy="10.138425"
     inkscape:window-width="1859"
     inkscape:window-height="1016"
     inkscape:window-x="61"
     inkscape:window-y="27"
     inkscape:window-maximized="1"
     inkscape:current-layer="svg8" />
  <g
     fill="#2e3436"
     font-weight="400"
     id="g6"
     transform="rotate(180,7.794,8.011)">
    <path
       d="m 4,6 v 2 h 4.994 c 0,0 0.791,0.014 1.553,0.395 0.761,0.38 1.447,0.938 1.447,2.605 v 2 h 2 V 11 C 13.994,8.667 12.68,7.225 11.441,6.605 10.203,5.986 8.994,6 8.994,6 Z"
       font-family="sans-serif"
       overflow="visible"
       style="font-variant-ligatures:normal;font-variant-position:normal;font-variant-caps:normal;font-variant-numeric:normal;font-variant-alternates:normal;font-feature-settings:normal;text-indent:0;text-decoration-line:none;text-decoration-style:solid;text-decoration-color:#000000;text-transform:none;text-orientation:mixed;shape-padding:0;isolation:auto;mix-blend-mode:normal"
       id="path2" />
    <path
       d="m 7,3.022 v 1 C 7,4.279 6.87,4.551 6.687,4.741 l -2.28,2.281 2.28,2.281 C 6.87,9.493 7,9.765 7,10.023 v 1 H 6 c -0.31,0 -0.552,-0.091 -0.75,-0.282 L 1.594,7.022 5.25,3.303 C 5.448,3.113 5.69,3.023 6,3.023 Z"
       color="#bebebe"
       font-family="'Bitstream Vera Sans'"
       overflow="visible"
       style="text-indent:0;text-decoration-line:none;text-transform:none"
       id="path4" />
  </g>
</svg>
